# xmcd
#
# Track frame offsets:
#	150
#	10437
#	19701
#	32142
#	42258
#	55524
#	65415
#	74406
#	86697
#	94863
#	107529
#	120762
#	133128
#	145044
#	155235
#	167976
#	178057
#	190942
#	202258
#	213340
#	223891
#	234232
#	245816
#	256869
#	267793
#
# Disc length: 3680 seconds
#
# Revision: 0
# Processed by: cddbd v1.5.2PL0 Copyright (c) Steve Scherf et al.
# Submitted via: audiograbber 1.83.01
#
DISCID=700e5e19
DTITLE=Various Artist - Rockabilly Cowboys - Disc 5
DYEAR=2012
DGENRE=Country
TTITLE0=Bob Luman - Blue Days, Black Nigots
TTITLE1=Leon and Carlos - Rock Everybody
TTITLE2=Tom James - Track Down Baby
TTITLE3=Tommy Spurlin - Heart Throb
TTITLE4=Don Head - Goin´ Strong
TTITLE5=Cliff Davis and His Kentucky Playboys - Rocky Road Blues
TTITLE6=Curtis Gordon - Mobile, Alabama
TTITLE7=Tom James - Hey Baby
TTITLE8=Buck Trail - The Blues Keep Knocking
TTITLE9=Howard Chandler - Wampus Cat
TTITLE10=Tillman Franks and His Rainbow Boys - Hot Rod Shotgun Boogie # 2
TTITLE11=Bill Browning - I´ll Pay You Back
TTITLE12=Charlie Brown - Have You Heard The Gossip
TTITLE13=Curtis Gordon - Play The Music Louder
TTITLE14=Bobby Roberts and The Bad Habits - Cravin´
TTITLE15=Skip Goodspeed - Only Two, Me And You
TTITLE16=Curley Langley - Linda Lou
TTITLE17=Luke McDaniel - Whoa Boy
TTITLE18=Norma Beasler - Greenback Dollar
TTITLE19=Billy Jack Wills - All She Wants To Do Is Rock
TTITLE20=Gayle Griffith - Rockin´ And Knockin´
TTITLE21=Joe Hudgins - Where´d You Stay Last Night
TTITLE22=Charlie Adams - Cattin´ Around
TTITLE23=Jimmy Manship - Teenage Sweetie
TTITLE24=Billy Hall - Move Over Rover
EXTD=
EXTT0=
EXTT1=
EXTT2=
EXTT3=
EXTT4=
EXTT5=
EXTT6=
EXTT7=
EXTT8=
EXTT9=
EXTT10=
EXTT11=
EXTT12=
EXTT13=
EXTT14=
EXTT15=
EXTT16=
EXTT17=
EXTT18=
EXTT19=
EXTT20=
EXTT21=
EXTT22=
EXTT23=
EXTT24=
PLAYORDER=
